<?xml version="1.0" encoding="UTF-8"?>
<svg xmlns="http://www.w3.org/2000/svg" version=1.1>
  <symbol id="github">
    <title>github</title>
    <path d="M12,2A10,10 0 0,0 2,12C2,16.42 4.87,20.17 8.84,21.5C9.34,21.58 9.5,21.27 9.5,21C9.5,20.77 9.5,20.14 9.5,19.31C6.73,19.91 6.14,17.97 6.14,17.97C5.68,16.81 5.03,16.5 5.03,16.5C4.12,15.88 5.1,15.9 5.1,15.9C6.1,15.97 6.63,16.93 6.63,16.93C7.5,18.45 8.97,18 9.54,17.76C9.63,17.11 9.89,16.67 10.17,16.42C7.95,16.17 5.62,15.31 5.62,11.5C5.62,10.39 6,9.5 6.65,8.79C6.55,8.54 6.2,7.5 6.75,6.15C6.75,6.15 7.59,5.88 9.5,7.17C10.29,6.95 11.15,6.84 12,6.84C12.85,6.84 13.71,6.95 14.5,7.17C16.41,5.88 17.25,6.15 17.25,6.15C17.8,7.5 17.45,8.54 17.35,8.79C18,9.5 18.38,10.39 18.38,11.5C18.38,15.32 16.04,16.16 13.81,16.41C14.17,16.72 14.5,17.33 14.5,18.26C14.5,19.6 14.5,20.68 14.5,21C14.5,21.27 14.66,21.59 15.17,21.5C19.14,20.16 22,16.42 22,12A10,10 0 0,0 12,2Z"/>
  </symbol>
  
  <symbol id="mdi-currency-eur">
    <title>currency-eur</title>
    <path d="M15 18.5C12.5 18.5 10.32 17.08 9.24 15H15L16 13H8.58C8.53 12.67 8.5 12.34 8.5 12S8.53 11.33 8.58 11H15L16 9H9.24C10.32 6.92 12.5 5.5 15 5.5C16.61 5.5 18.09 6.09 19.23 7.07L21 5.3C19.41 3.87 17.3 3 15 3C11.08 3 7.76 5.5 6.5 9H3L2 11H6.06C6 11.33 6 11.66 6 12S6 12.67 6.06 13H3L2 15H6.5C7.76 18.5 11.08 21 15 21C17.31 21 19.41 20.13 21 18.7L19.22 16.93C18.09 17.91 16.62 18.5 15 18.5Z" />
  </symbol>
  
  <symbol id="mdi-cog">
    <title>cog</title>
    <path d="M12,15.5A3.5,3.5 0 0,1 8.5,12A3.5,3.5 0 0,1 12,8.5A3.5,3.5 0 0,1 15.5,12A3.5,3.5 0 0,1 12,15.5M19.43,12.97C19.47,12.65 19.5,12.33 19.5,12C19.5,11.67 19.47,11.34 19.43,11L21.54,9.37C21.73,9.22 21.78,8.95 21.66,8.73L19.66,5.27C19.54,5.05 19.27,4.96 19.05,5.05L16.56,6.05C16.04,5.66 15.5,5.32 14.87,5.07L14.5,2.42C14.46,2.18 14.25,2 14,2H10C9.75,2 9.54,2.18 9.5,2.42L9.13,5.07C8.5,5.32 7.96,5.66 7.44,6.05L4.95,5.05C4.73,4.96 4.46,5.05 4.34,5.27L2.34,8.73C2.21,8.95 2.27,9.22 2.46,9.37L4.57,11C4.53,11.34 4.5,11.67 4.5,12C4.5,12.33 4.53,12.65 4.57,12.97L2.46,14.63C2.27,14.78 2.21,15.05 2.34,15.27L4.34,18.73C4.46,18.95 4.73,19.03 4.95,18.95L7.44,17.94C7.96,18.34 8.5,18.68 9.13,18.93L9.5,21.58C9.54,21.82 9.75,22 10,22H14C14.25,22 14.46,21.82 14.5,21.58L14.87,18.93C15.5,18.67 16.04,18.34 16.56,17.94L19.05,18.95C19.27,19.03 19.54,18.95 19.66,18.73L21.66,15.27C21.78,15.05 21.73,14.78 21.54,14.63L19.43,12.97Z" />
  </symbol>
  
  <symbol id="mdi-menu-close">
    <title>menu-close</title>
    <path d="M3 6H13V8H3V6M3 16H13V18H3V16M3 11H15V13H3V11M16 7L14.58 8.39L18.14 12L14.58 15.61L16 17L21 12L16 7Z"/>
  </symbol>

  <symbol id="mdi-menu-open">
    <title>menu-open</title>
    <path d="M21,15.61L19.59,17L14.58,12L19.59,7L21,8.39L17.44,12L21,15.61M3,6H16V8H3V6M3,13V11H13V13H3M3,18V16H16V18H3Z"/>
  </symbol>
</svg>
