<?xml version="1.0" encoding="UTF-8" standalone="no"?>
<!-- Created with Inkscape (http://www.inkscape.org/) -->

<svg
  width="39"
  height="5"
  viewBox="0 0 39 5"
  version="1.1"
  xmlns="http://www.w3.org/2000/svg"
>
  <symbol id="logo">
    <g
      id="layer1"
      transform="translate(-63.824407,-142.75694)">
      <path
        id="circle23"
        style="fill:#d8c269;fill-opacity:1;stroke-width:0.246658"
        d="M 63.824407 143.00303 L 63.824407 147.51085 L 64.726751 147.51085 L 64.726751 146.92296 A 1.9975613 1.9975613 0 0 0 65.824407 147.25499 A 1.9975613 1.9975613 0 0 0 67.822454 145.25694 A 1.9975613 1.9975613 0 0 0 65.824407 143.25889 A 1.9975613 1.9975613 0 0 0 64.726751 143.59092 L 64.726751 143.00303 L 63.824407 143.00303 z M 65.824407 143.63194 A 1.625 1.625 0 0 1 67.449407 145.25694 A 1.625 1.625 0 0 1 65.824407 146.88194 A 1.625 1.625 0 0 1 64.199407 145.25694 A 1.625 1.625 0 0 1 65.824407 143.63194 z "
      />
      <circle
        style="fill:#d9d8de;fill-opacity:1;stroke-width:0.169784"
        id="circle1"
        cx="65.823433"
        cy="145.25694"
        r="1.5"
      />
      <path
        id="path25"
        style="fill:currentColor;stroke-width:0.172801"
        d="m 63.824406,144.75713 v 1 h 0.90183 0.09797 1 v -1 h -1 -0.09797 z" />
      <path
        id="path26"
        style="fill:currentColor;stroke-width:0.172801"
        d="m 63.824406,146.75693 v 0.75484 a 0.24516085,0.24516085 0 0 0 0.245161,0.24516 h 0.754636 1 0.999797 v -1 h -0.999797 -1 z" />
      <path
        id="path27"
        style="fill:currentColor;stroke-width:0.172801"
        d="m 63.824406,143.0025 v 0.75484 h 0.999797 1 0.999797 v -1 h -0.999797 -1 -0.754636 a 0.2451612,0.2451612 0 0 0 -0.245161,0.24516 z" />
      <path
        style="fill:#2e280d;fill-opacity:1;stroke:none;stroke-width:0.0194602;stroke-dasharray:none"
        d="M 64.824203,147.75693 H 91.874631"
        id="path30" />
      <path
        id="rect37"
        style="fill:currentColor;fill-opacity:1;stroke:none;stroke-width:0.0194602;stroke-dasharray:none"
        d="m 73.824058,142.75693 v 1 1 h -1 -0.508169 a 0.49183061,0.49183061 0 0 0 -0.491831,0.49183 v 0.50817 1 0.5185 a 0.48150204,0.48150204 0 0 0 0.481502,0.4815 h 0.518498 1 0.497121 a 0.502879,0.502879 0 0 0 0.502879,-0.50288 v -0.49712 -1 -1 -1 -1 z m -1,3 h 1 v 1 h -1 z" />
      <path
        id="rect31"
        style="fill:currentColor;fill-opacity:1;stroke:none;stroke-width:0.0194602;stroke-dasharray:none"
        d="m 67.824057,144.75693 v 1 1 1 h 1 v -1 -1 h 1 v 1 1 h 1.000001 v -1 -1 -0.51246 a 0.48754409,0.48754409 0 0 0 -0.487545,-0.48754 h -0.512456 -1 z" />
      <path
        id="rect47"
        style="fill:currentColor;fill-opacity:1;stroke:none;stroke-width:0.0194602;stroke-dasharray:none"
        d="m 75.824058,145.25693 v 0.5 1 0.5 a 0.49999929,0.49999929 0 0 0 0.5,0.5 h 0.5 1 0.5 a 0.49999929,0.49999929 0 0 0 0.5,-0.5 v -0.5 -1 -0.5 a 0.49999961,0.49999961 0 0 0 -0.5,-0.5 h -0.5 -1 -0.5 a 0.49999961,0.49999961 0 0 0 -0.5,0.5 z m 1,0.5 h 1 v 1 h -1 z" />
      <path
        id="rect1-5"
        style="fill:currentColor;fill-opacity:1;stroke:none;stroke-width:0.0194602;stroke-dasharray:none"
        d="m 79.824058,144.75693 v 1 1 0.43774 a 0.5622611,0.5622611 0 0 0 0.562262,0.56226 h 0.437738 1.000003 v -1 h -1.000003 v -1 -1 z m 2.000003,2 h 1 v -1 -1 h -1 v 1 z" />
      <path
        style="fill:currentColor;fill-opacity:1;stroke-width:0.104065"
        d="m 75.824058,145.25693 h 3"
        id="path9" />
      <path
        style="fill:currentColor;fill-opacity:1;stroke-width:0.104065"
        d="m 78.824058,147.25693 h -3"
        id="path10" />
      <path
        id="rect90"
        style="fill:currentColor;fill-opacity:1;stroke:none;stroke-width:0.0194602;stroke-dasharray:none"
        d="m 87.824061,143.75693 v 1 1 1 1 h 1 v -1 -1 -1 -1 z" />
      <path
        id="rect96"
        style="fill:currentColor;fill-opacity:1;stroke:none;stroke-width:0.0194602;stroke-dasharray:none"
        d="m 90.324061,143.75693 c -0.27614,0 -0.5,0.22386 -0.5,0.5 0,0.27614 0.22386,0.5 0.5,0.5 0.27614,0 0.5,-0.22386 0.5,-0.5 0,-0.27614 -0.22386,-0.5 -0.5,-0.5 z m -0.5,2 v 1 1 h 1 v -1 -0.46998 -0.53002 z" />
      <path
        id="path22"
        style="fill:currentColor;fill-opacity:1;stroke:none;stroke-width:0.0194602;stroke-dasharray:none"
        d="m 84.324061,144.75693 c -0.27614,0 -0.5,0.22386 -0.5,0.5 v 0.5 1 0.5 c 0,0.27614 0.22386,0.5 0.5,0.5 h 0.5 1 0.5 c 0.27614,0 0.5,-0.22386 0.5,-0.5 v -0.5 h -1 -1 v -0.5 h 1 0.74595 0.25405 v -0.5 -0.5 c 0,-0.27614 -0.22386,-0.5 -0.5,-0.5 h -0.5 -1 z m 0.5,0.5 h 1 v 0.5 h -1 z" />
      <path
        id="path47"
        style="fill:currentColor;fill-opacity:1;stroke:none;stroke-width:0.0194602;stroke-dasharray:none"
        d="m 92.324061,144.75693 c -0.27614,0 -0.5,0.22386 -0.5,0.5 v 0.5 1 0.5 c 0,0.27614 0.22386,0.5 0.5,0.5 h 0.5 1 1 v -1 h -1 -1 v -1 h 0.5 0.5 1 v -1 h -1 -1 z" />
      <path
        id="path57"
        style="fill:currentColor;fill-opacity:1;stroke:none;stroke-width:0.0194602;stroke-dasharray:none"
        d="m 95.824061,144.75693 v 1 1 0.5 c 0,0.27614 0.22386,0.5 0.5,0.5 h 0.5 1 0.5 c 0.27614,0 0.5,-0.22386 0.5,-0.5 v -0.5 -1 -1 h -1 v 1 1 h -1 v -1 -1 z" />
      <path
        id="rect81"
        style="fill:currentColor;fill-opacity:1;stroke:none;stroke-width:0.0194602;stroke-dasharray:none"
        d="m 100.32405,144.75693 a 0.50000016,0.50000016 0 0 0 -0.499985,0.5 v 0.25 0.25 0.25 a 0.50000016,0.50000016 0 0 0 0.499985,0.5 h 0.5 1 v 0.25 h -1 -0.999985 v 0.5 a 0.50000016,0.50000016 0 0 0 0.499985,0.5 h 0.5 1 0.5 a 0.50000016,0.50000016 0 0 0 0.5,-0.5 v -0.5 -0.25 a 0.50000016,0.50000016 0 0 0 -0.5,-0.5 h -0.5 -1 v -0.25 h 1 1 v -0.5 a 0.50000016,0.50000016 0 0 0 -0.5,-0.5 h -0.5 -1 z" />
    </g>
  </symbol>
  <use href="#logo"></use>
</svg>
